Coordinates
version=1
nRows=4
nColumns=63
inDegrees=yes

Units are S.I. units (second, meters, Newtons, ...)
If the header above contains a line with 'inDegrees', this indicates whether rotational values are in degrees (yes) or radians (no).

endheader
time	pelvis_tilt	pelvis_list	pelvis_rotation	pelvis_tx	pelvis_ty	pelvis_tz	hip_flexion_r	hip_adduction_r	hip_rotation_r	knee_angle_r	knee_angle_r_beta	ankle_angle_r	subtalar_angle_r	mtp_angle_r	hip_flexion_l	hip_adduction_l	hip_rotation_l	knee_angle_l	knee_angle_l_beta	ankle_angle_l	subtalar_angle_l	mtp_angle_l	L5_S1_Flex_Ext	L5_S1_Lat_Bending	L5_S1_axial_rotation	L4_L5_Flex_Ext	L4_L5_Lat_Bending	L4_L5_axial_rotation	L3_L4_Flex_Ext	L3_L4_Lat_Bending	L3_L4_axial_rotation	L2_L3_Flex_Ext	L2_L3_Lat_Bending	L2_L3_axial_rotation	L1_L2_Flex_Ext	L1_L2_Lat_Bending	L1_L2_axial_rotation	L1_T12_Flex_Ext	L1_T12_Lat_Bending	L1_T12_axial_rotation	Abs_r3	Abs_r2	Abs_r1	Abs_t1	Abs_t2	neck_flexion	neck_bending	neck_rotation	arm_flex_r	arm_add_r	arm_rot_r	elbow_flex_r	pro_sup_r	wrist_flex_r	wrist_dev_r	arm_flex_l	arm_add_l	arm_rot_l	elbow_flex_l	pro_sup_l	wrist_flex_l	wrist_dev_l
      2.05000000	      2.28950678	     -5.61389701	     85.86042706	      0.11147315	      0.64937835	      0.79724781	     -0.70733181	      2.19616614	      9.80523585	      7.61392183	      0.13288800	     33.10567985	      5.49586508	      0.00000000	     -1.54362182	     -1.26857817	    -13.32102867	      8.78184827	      0.15327217	     35.21922013	      3.33879583	      0.00000000	     -0.08764342	      0.10296782	      0.82260829	     -0.16276260	      0.13694720	      0.87402131	     -0.14398938	      0.25035596	      0.87402131	     -0.10016767	      0.25035596	      0.71978225	     -0.08138568	      0.20997198	      0.66836924	     -0.05007945	      0.15949716	      0.61695622	     -0.62602821	      1.16479259	      4.57510052	      0.00000000	      0.00000000	     16.56509147	      1.49448650	     -3.17354525	     -0.08967444	    -19.67441481	     31.31151492	     45.90286051	     88.47112106	     13.13440414	     29.92999099	     -7.52440771	    -16.22193935	     14.80819672	     53.02344381	     88.74553696	     -7.92464536	      3.38807912
      2.06666667	      2.24618920	     -5.73403994	     86.08508711	      0.11128881	      0.64937923	      0.79877195	     -0.45399398	      2.19311650	      9.73842031	      7.67809229	      0.13400799	     33.04735153	      5.37173591	      0.00000000	     -1.22751478	     -1.25690212	    -13.20949970	      8.91052112	      0.15551793	     35.04961916	      3.46312589	      0.00000000	     -0.08911685	      0.09436267	      0.81829834	     -0.16549890	      0.12550235	      0.86944199	     -0.14641007	      0.22943339	      0.86944199	     -0.10185165	      0.22943339	      0.71601105	     -0.08275391	      0.19242435	      0.66486740	     -0.05092137	      0.14616777	      0.61372375	     -0.63655275	      1.06744935	      4.55112988	      0.00000000	      0.00000000	     16.70146644	      1.63406057	     -3.33654149	     -0.05590301	    -19.97743225	     31.33761183	     45.99501165	     88.50758554	     13.06056260	     29.73346672	     -7.15188120	    -15.96633679	     13.75169606	     51.59038873	     88.26982555	     -8.19880143	      4.08158940
      2.08333333	      2.39897999	     -5.95622850	     86.86663514	      0.11096742	      0.64905825	      0.80032919	     -0.12253479	      2.48452096	      9.46443142	      7.78216789	      0.13582445	     32.86915686	      4.59006996	      0.00000000	     -0.62184737	     -1.56461473	    -12.71005010	      9.30170088	      0.16234531	     35.13222130	      3.82113546	      0.00000000	     -0.07819490	      0.09711814	      0.64000012	     -0.14521574	      0.12916713	      0.68000012	     -0.12846639	      0.23613304	      0.68000012	     -0.08936895	      0.23613304	      0.56000010	     -0.07261178	      0.19804331	      0.52000010	     -0.04468056	      0.15043600	      0.48000009	     -0.55853832	      1.09861982	      3.55948865	      0.00000000	      0.00000000	     16.84934235	      1.74926264	     -3.63520027	      0.33617879	    -20.41838217	     32.70478945	     46.09770200	     88.47701737	     12.04009326	     28.12985666	     -7.60399400	    -15.49590968	     10.73691122	     51.35043679	     88.14344625	     -7.20259711	      7.78412352
      2.10000000	      2.46186122	     -6.18675812	     87.36302876	      0.11080317	      0.64883989	      0.80209423	      0.29332737	      2.63349617	      9.20901544	      7.96170399	      0.13895795	     32.81347147	      4.23602808	      0.00000000	     -0.09419323	     -1.72292406	    -12.44742154	      9.51705155	      0.16610388	     35.13523801	      4.08297859	      0.00000000	     -0.07229156	      0.09853040	      0.56565386	     -0.13425266	      0.13104543	      0.60100723	     -0.11876781	      0.23956681	      0.60100723	     -0.08262203	      0.23956681	      0.49494713	     -0.06712995	      0.20092319	      0.45959376	     -0.04130740	      0.15262359	      0.42424040	     -0.51637141	      1.11459557	      3.14599708	      0.00000000	      0.00000000	     17.17036852	      1.73412264	     -3.79953022	      0.25311341	    -20.71782220	     32.66136134	     46.45733514	     88.42252436	     11.65112262	     27.07112591	     -7.38926179	    -15.65651318	     10.10672583	     50.13827346	     88.08915208	     -7.61024758	      9.21065485
